<?xml version="1.0" standalone="no"?>
<!DOCTYPE svg PUBLIC "-//W3C//DTD SVG 20010904//EN"
 "http://www.w3.org/TR/2001/REC-SVG-20010904/DTD/svg10.dtd">
<svg version="1.0" xmlns="http://www.w3.org/2000/svg"
 width="1080.000000pt" height="1080.000000pt" viewBox="0 0 1080.000000 1080.000000"
 preserveAspectRatio="xMidYMid meet">
<metadata>
Created by potrace 1.11, written by Peter Selinger 2001-2013
</metadata>
<g transform="translate(0.000000,1080.000000) scale(0.100000,-0.100000)"
fill="#000000" stroke="none">
<path d="M4892 8423 c-23 -27 -90 -100 -151 -163 l-109 -115 289 -3 c230 -2
289 -5 289 -15 0 -8 -25 -137 -55 -288 -30 -151 -58 -287 -60 -304 -3 -16 -8
-37 -10 -45 -2 -8 -6 -31 -9 -50 -3 -19 -18 -95 -34 -168 l-28 -134 -88 -44
c-336 -167 -551 -437 -636 -798 -31 -130 -50 -260 -41 -274 3 -5 96 35 206 89
110 54 203 99 206 101 4 2 9 46 12 98 11 173 53 307 135 428 40 58 150 177
158 169 2 -2 -3 -35 -11 -73 -8 -38 -16 -82 -19 -99 -3 -16 -17 -86 -31 -155
-14 -69 -28 -138 -31 -155 -3 -16 -23 -120 -46 -230 -22 -110 -42 -209 -43
-220 -2 -11 -10 -54 -19 -95 -8 -41 -17 -86 -20 -100 -2 -14 -7 -36 -10 -50
-3 -14 -8 -36 -10 -50 -35 -183 -96 -418 -136 -519 -132 -335 -279 -460 -547
-467 -251 -6 -436 97 -574 320 -26 44 -50 84 -52 90 -2 6 -72 -59 -154 -144
l-151 -154 64 -51 c136 -105 309 -189 459 -223 73 -16 322 -23 405 -10 352 51
633 236 863 569 120 175 219 403 296 687 26 94 153 703 177 847 15 95 98 492
103 497 7 8 201 24 201 16 0 -2 -9 -44 -19 -93 -11 -50 -22 -103 -25 -119 -3
-16 -10 -52 -15 -80 -6 -28 -12 -62 -15 -76 -2 -14 -18 -95 -36 -180 -18 -85
-34 -166 -37 -180 -3 -20 -174 -875 -189 -945 -2 -11 -8 -42 -14 -70 -6 -27
-12 -61 -15 -75 -3 -14 -9 -48 -15 -76 -6 -28 -13 -64 -16 -80 -3 -16 -18 -81
-34 -144 -56 -224 -124 -396 -187 -470 -48 -57 -145 -111 -229 -126 -15 -3
-31 -7 -35 -10 -4 -2 -59 -7 -121 -10 l-113 -5 -163 -165 -163 -164 43 -1 c24
-1 66 -2 93 -4 43 -2 141 -6 495 -20 543 -21 956 -26 1065 -12 116 15 129 17
205 32 14 3 36 7 50 10 203 38 450 140 633 262 289 193 425 420 420 701 -3
180 -110 344 -316 483 -103 69 -274 153 -407 199 -52 18 -99 36 -103 40 -6 5
64 29 133 45 3 1 18 7 33 13 16 7 32 12 36 12 5 0 53 18 107 41 446 185 670
450 679 803 5 211 -65 362 -218 465 -76 51 -236 111 -337 126 -25 4 -49 8 -55
9 -227 54 -908 57 -1224 7 -31 -5 -58 -7 -60 -5 -2 2 34 196 81 432 l85 427
169 3 169 3 170 164 170 164 -711 1 -710 0 -42 -47z m1566 -1253 c251 -43 410
-172 455 -370 15 -61 16 -230 2 -295 -73 -356 -350 -613 -730 -678 -102 -18
-305 -22 -305 -7 0 6 7 43 15 83 8 40 17 86 20 102 3 17 8 41 11 55 8 39 76
383 80 405 2 11 8 43 14 71 6 28 13 61 15 75 3 13 20 103 39 199 19 97 37 189
40 205 3 15 10 54 16 84 21 103 6 94 144 88 66 -4 149 -11 184 -17z m-298
-1515 c321 -68 526 -269 580 -570 15 -89 6 -295 -19 -388 -59 -225 -212 -368
-457 -429 -77 -19 -117 -22 -294 -22 -185 0 -291 5 -390 18 -19 3 -57 8 -85
11 -27 4 -117 20 -200 37 -82 16 -160 32 -172 34 -29 5 -71 23 -57 23 10 1
144 88 154 100 3 4 19 17 35 30 95 72 229 220 307 340 42 64 125 225 148 286
35 92 75 232 95 335 2 8 11 56 20 105 9 50 19 96 21 103 5 17 212 9 314 -13z"/>
</g>
</svg>
